<?xml version="1.0" encoding="utf-8"?>
<!-- Generated by IcoMoon.io -->
<!DOCTYPE svg PUBLIC "-//W3C//DTD SVG 1.1//EN" "http://www.w3.org/Graphics/SVG/1.1/DTD/svg11.dtd">
<svg version="1.1" xmlns="http://www.w3.org/2000/svg" xmlns:xlink="http://www.w3.org/1999/xlink" width="42" height="32" viewBox="0 0 42 32">
<path d="M25 32h-19c-0.345 0-0.665-0.178-0.848-0.47l-5-8c-0.287-0.459-0.157-1.062 0.293-1.362l3-2c0.425-0.284 0.996-0.201 1.323 0.192l3.232 3.878v-15.238c0-0.552 0.448-1 1-1h4c0.552 0 1 0.448 1 1v6.219l11.243 2.811c0.445 0.111 0.757 0.511 0.757 0.97v12c0 0.552-0.448 1-1 1zM6.554 30h17.446v-10.219l-2-0.5v5.719c0 0.552-0.448 1-1 1s-1-0.448-1-1v-6.219l-2-0.5v4.719c0 0.552-0.448 1-1 1s-1-0.448-1-1v-5.219l-2-0.5v7.719c0 0.552-0.448 1-1 1s-1-0.448-1-1v-15h-2v17c0 0.421-0.264 0.797-0.66 0.94s-0.839 0.023-1.109-0.3l-4.425-5.31-1.444 0.963 4.192 6.707z" fill="#444444"></path>
<path d="M17.999 13.876c-0.164 0-0.331-0.040-0.484-0.126-0.483-0.268-0.657-0.877-0.389-1.36 0.572-1.031 0.875-2.203 0.875-3.391 0-3.86-3.14-7-7-7s-7 3.14-7 7c0 1.187 0.302 2.36 0.874 3.391 0.268 0.483 0.094 1.092-0.389 1.36s-1.092 0.094-1.36-0.389c-0.736-1.327-1.126-2.835-1.126-4.361 0-4.963 4.037-9 9-9s9 4.037 9 9c0 1.526-0.389 3.034-1.126 4.361-0.183 0.329-0.524 0.515-0.875 0.515z" fill="#444444"></path>
<path d="M41 8l-7-7v5h-12v4h12v5z" fill="#444444"></path>
</svg>
