<?xml version="1.0" encoding="utf-8"?>
<!-- Generated by IcoMoon.io -->
<!DOCTYPE svg PUBLIC "-//W3C//DTD SVG 1.1//EN" "http://www.w3.org/Graphics/SVG/1.1/DTD/svg11.dtd">
<svg version="1.1" xmlns="http://www.w3.org/2000/svg" xmlns:xlink="http://www.w3.org/1999/xlink" width="42" height="32" viewBox="0 0 42 32">
<path d="M8 6v-5l-7 7 7 7v-5h8v-4z" fill="#444444"></path>
<path d="M34 6v-5l7 7-7 7v-5h-8v-4z" fill="#444444"></path>
<path d="M35 32h-19c-0.345 0-0.665-0.178-0.848-0.47l-5-8c-0.287-0.459-0.157-1.062 0.293-1.362l3-2c0.425-0.284 0.996-0.201 1.323 0.192l3.232 3.878v-15.238c0-0.552 0.448-1 1-1h4c0.552 0 1 0.448 1 1v6.219l11.243 2.811c0.445 0.111 0.757 0.511 0.757 0.97v12c0 0.552-0.448 1-1 1v0zM16.554 30h17.446v-10.219l-2-0.5v5.719c0 0.552-0.448 1-1 1s-1-0.448-1-1v-6.219l-2-0.5v4.719c0 0.552-0.448 1-1 1s-1-0.448-1-1v-5.219l-2-0.5v7.719c0 0.552-0.448 1-1 1s-1-0.448-1-1v-15h-2v17c0 0.421-0.264 0.797-0.66 0.94s-0.839 0.023-1.109-0.3l-4.425-5.31-1.444 0.963 4.192 6.707z" fill="#444444"></path>
</svg>
