<?xml version="1.0" encoding="utf-8"?>
<!-- Generated by IcoMoon.io -->
<!DOCTYPE svg PUBLIC "-//W3C//DTD SVG 1.1//EN" "http://www.w3.org/Graphics/SVG/1.1/DTD/svg11.dtd">
<svg version="1.1" xmlns="http://www.w3.org/2000/svg" xmlns:xlink="http://www.w3.org/1999/xlink" width="32" height="32" viewBox="0 0 32 32">
<path d="M31 32h-19c-0.345 0-0.665-0.178-0.848-0.47l-5-8c-0.287-0.459-0.157-1.062 0.293-1.362l3-2c0.425-0.284 0.996-0.201 1.323 0.192l3.232 3.878v-15.238c0-0.552 0.448-1 1-1h4c0.552 0 1 0.448 1 1v6.219l11.243 2.811c0.445 0.111 0.757 0.511 0.757 0.97v12c0 0.552-0.448 1-1 1v0zM12.554 30h17.446v-10.219l-2-0.5v5.719c0 0.552-0.448 1-1 1s-1-0.448-1-1v-6.219l-2-0.5v4.719c0 0.552-0.448 1-1 1s-1-0.448-1-1v-5.219l-2-0.5v7.719c0 0.552-0.448 1-1 1s-1-0.448-1-1v-15h-2v17c0 0.421-0.264 0.797-0.66 0.94s-0.839 0.023-1.108-0.3l-4.425-5.31-1.444 0.963 4.192 6.707z" fill="#444444"></path>
<path d="M23 10c-0.552 0-1-0.448-1-1 0-2.757-2.243-5-5-5s-5 2.243-5 5c0 0.552-0.448 1-1 1s-1-0.448-1-1c0-3.86 3.14-7 7-7s7 3.14 7 7c0 0.552-0.448 1-1 1z" fill="#444444"></path>
<path d="M4.999 29.327c-0.144 0-0.29-0.031-0.428-0.097-1.347-0.64-2.488-1.642-3.298-2.899-0.833-1.291-1.273-2.789-1.273-4.331 0-4.411 3.589-8 8-8 1.199 0 2.353 0.259 3.429 0.77 0.499 0.237 0.711 0.834 0.474 1.332s-0.834 0.711-1.332 0.474c-0.806-0.383-1.671-0.577-2.571-0.577-3.308 0-6 2.692-6 6 0 2.305 1.346 4.434 3.429 5.423 0.499 0.237 0.711 0.834 0.474 1.332-0.171 0.36-0.53 0.571-0.904 0.571z" fill="#444444"></path>
</svg>
