<?xml version="1.0" standalone="no"?>
<!DOCTYPE svg PUBLIC "-//W3C//DTD SVG 20010904//EN"
 "http://www.w3.org/TR/2001/REC-SVG-20010904/DTD/svg10.dtd">
<svg version="1.0" xmlns="http://www.w3.org/2000/svg"
 width="700.000000pt" height="700.000000pt" viewBox="0 0 700.000000 700.000000"
 preserveAspectRatio="xMidYMid meet">
<metadata>
Created by potrace 1.11, written by Peter Selinger 2001-2013
</metadata>
<g transform="translate(0.000000,700.000000) scale(0.100000,-0.100000)"
fill="#000000" stroke="none">
<path d="M710 4785 c0 -45 0 -2513 0 -2561 l0 -41 240 1 240 1 0 602 0 603
110 0 109 0 11 -42 c6 -24 17 -65 25 -93 18 -67 76 -286 80 -305 2 -8 29 -109
60 -225 31 -115 72 -271 91 -345 19 -74 39 -149 45 -166 l9 -31 235 1 c202 0
235 2 235 15 0 13 -112 420 -154 561 -13 44 -43 147 -146 515 -28 99 -53 185
-55 192 -2 6 21 24 51 39 170 86 262 287 265 579 2 171 -10 253 -53 365 -79
205 -268 322 -573 356 -33 4 -232 7 -442 8 l-383 2 0 -31z m785 -310 c51 -11
127 -58 151 -95 46 -70 67 -158 67 -290 1 -156 -31 -259 -98 -318 -64 -56
-125 -73 -287 -79 l-138 -6 0 401 0 400 138 -3 c75 -2 150 -6 167 -10z"/>
<path d="M2425 4812 c-2 -2 -2 -13 0 -25 6 -31 44 -294 50 -342 2 -22 7 -51 9
-65 3 -14 8 -46 11 -71 3 -26 17 -125 30 -220 14 -96 28 -192 31 -214 3 -22 7
-51 9 -65 4 -28 21 -152 30 -215 3 -23 7 -50 9 -60 2 -11 7 -42 10 -70 4 -27
8 -61 11 -75 2 -14 7 -47 10 -75 3 -27 8 -57 10 -65 2 -8 6 -36 9 -63 3 -26
14 -107 25 -180 11 -72 23 -154 26 -182 4 -27 8 -61 11 -75 2 -14 8 -61 14
-105 6 -44 13 -91 15 -105 8 -55 18 -121 34 -235 l16 -120 193 0 c106 -1 197
2 202 5 5 3 11 21 14 40 4 30 9 65 31 200 2 14 11 68 20 120 9 52 18 109 21
125 2 17 6 41 9 55 3 14 7 39 9 55 3 17 19 111 35 210 34 207 40 247 46 295 3
19 9 55 15 80 5 25 11 63 14 85 3 22 15 94 26 160 12 66 23 136 26 155 2 19 6
46 9 60 3 14 8 43 11 65 3 22 7 41 8 42 1 2 21 -111 44 -250 23 -138 43 -261
46 -272 2 -11 7 -42 10 -68 4 -27 9 -59 12 -70 2 -12 9 -51 14 -87 5 -36 12
-77 15 -92 3 -16 7 -40 10 -55 3 -16 10 -57 15 -93 5 -36 12 -76 15 -90 5 -24
9 -51 20 -122 2 -18 16 -100 30 -183 14 -82 28 -166 31 -185 3 -19 7 -46 10
-60 2 -14 7 -46 11 -72 4 -32 11 -49 22 -52 23 -5 368 -2 374 4 4 5 32 180 42
270 3 25 12 92 21 150 8 58 17 123 20 145 3 22 7 51 9 65 2 14 9 59 14 100 6
41 13 86 15 100 4 21 13 90 21 160 1 8 5 38 9 65 5 28 10 64 12 80 2 17 11 80
19 140 9 61 17 124 20 140 5 39 25 184 30 211 2 12 7 48 10 80 4 33 9 67 11
77 2 10 10 70 19 135 9 64 18 128 20 142 2 14 6 45 10 70 3 25 8 56 10 70 2
14 7 49 10 79 4 30 9 63 11 75 4 19 15 104 31 226 l5 45 -197 0 c-168 0 -198
-2 -200 -15 -5 -31 -16 -126 -21 -165 -2 -22 -6 -57 -9 -77 -8 -59 -14 -109
-20 -158 -3 -25 -8 -63 -10 -85 -3 -22 -8 -58 -11 -80 -2 -22 -7 -51 -9 -65
-2 -14 -7 -53 -10 -87 -3 -34 -7 -70 -9 -80 -4 -17 -15 -108 -21 -163 -3 -32
-15 -128 -20 -160 -2 -14 -6 -43 -9 -65 -5 -37 -9 -69 -21 -180 -3 -22 -7 -49
-9 -60 -2 -11 -7 -49 -12 -85 -4 -36 -8 -69 -9 -75 -1 -5 -3 -28 -3 -49 -2
-38 -14 -44 -17 -8 -1 9 -5 35 -9 57 -4 22 -8 51 -11 65 -2 14 -11 68 -20 120
-9 52 -18 111 -21 130 -3 19 -14 89 -25 155 -11 66 -22 131 -24 145 -10 64
-95 577 -99 595 -4 21 -12 74 -22 139 -3 21 -7 48 -10 59 -2 12 -6 37 -9 57
-3 20 -9 56 -13 81 l-8 44 -164 0 -164 0 -8 -45 c-5 -25 -10 -58 -13 -75 -10
-73 -16 -113 -25 -160 -5 -27 -12 -68 -15 -90 -3 -22 -8 -51 -10 -65 -4 -24
-44 -275 -50 -315 -4 -26 -25 -153 -30 -185 -2 -14 -7 -43 -10 -65 -4 -22 -8
-47 -10 -55 -2 -8 -7 -35 -10 -60 -7 -51 -12 -82 -25 -160 -5 -30 -11 -68 -13
-85 -3 -16 -8 -46 -11 -65 -8 -46 -13 -79 -28 -172 -6 -43 -13 -76 -15 -75 -3
3 -29 193 -38 272 -5 47 -15 127 -20 160 -3 17 -7 53 -10 80 -3 28 -7 64 -10
80 -2 17 -7 53 -10 80 -3 28 -10 79 -15 115 -5 36 -12 83 -14 105 -11 92 -43
345 -51 395 -2 14 -7 50 -10 80 -3 30 -8 69 -10 85 -7 45 -13 93 -20 160 -4
33 -9 62 -12 65 -5 5 -392 7 -398 2z"/>
<path d="M4829 4775 c0 -52 0 -2532 0 -2566 l1 -25 408 1 c224 1 416 4 427 8
11 3 38 8 60 12 218 32 385 148 467 325 27 56 53 141 62 195 29 178 28 142 28
805 1 465 -4 651 -16 710 -1 8 -6 33 -10 55 -4 22 -17 67 -28 100 -86 254
-261 374 -598 412 -25 3 -215 6 -422 7 l-378 2 -1 -41z m765 -316 c109 -28
154 -76 182 -192 15 -64 17 -146 18 -707 1 -349 -2 -674 -6 -723 -10 -129 -31
-190 -81 -241 -64 -63 -135 -80 -334 -77 l-63 1 0 974 c0 920 1 975 18 978 34
7 226 -2 266 -13z"/>
</g>
</svg>
