<?xml version="1.0" encoding="UTF-8"?>
<svg width="250px" height="250px" viewBox="0 0 250 250" version="1.1" xmlns="http://www.w3.org/2000/svg" xmlns:xlink="http://www.w3.org/1999/xlink">
    <!-- Generator: Sketch 55.2 (78181) - https://sketchapp.com -->
    <title>Artboard</title>
    <desc>Created with Sketch.</desc>
    <g id="Artboard" stroke="none" stroke-width="1" fill="none" fill-rule="evenodd">
        <g id="Group" transform="translate(25.000000, 78.000000)" fill="#4A4A4A" fill-rule="nonzero">
            <path d="M0.29013281,94 L0.29013281,0.04 L22.7941328,0.04 C29.1354979,0.04 34.4907776,0.7939925 38.8601328,2.302 C43.229488,3.8100075 46.5547881,6.3813152 48.8361328,10.016 C51.1174776,13.6506848 52.2581328,18.5999687 52.2581328,24.864 C52.2581328,28.6533523 51.9101363,32.0559849 51.2141328,35.072 C50.5181293,38.0880151 49.3388078,40.6593227 47.6761328,42.786 C46.0134578,44.9126773 43.7128142,46.5559942 40.7741328,47.716 L53.8821328,94 L36.7141328,94 L25.3461328,50.964 L17.4581328,50.964 L17.4581328,94 L0.29013281,94 Z M17.4581328,40.176 L22.7941328,40.176 C26.1194828,40.176 28.768123,39.6926715 30.7401328,38.726 C32.7121427,37.7593285 34.1234619,36.2126773 34.9741328,34.086 C35.8248037,31.9593227 36.2501328,29.23335 36.2501328,25.908 C36.2501328,21.1906431 35.3801415,17.6526785 33.6401328,15.294 C31.9001241,12.9353215 28.5941572,11.756 23.7221328,11.756 L17.4581328,11.756 L17.4581328,40.176 Z M74.8555332,94 L61.5155332,0.04 L75.8995332,0.04 L83.6715332,60.94 L93.415533,0.272 L105.131533,0.272 L115.107533,60.94 L122.763533,0.04 L136.915533,0.04 L123.807533,94 L109.887533,94 L99.447533,31.012 L89.1235332,94 L74.8555332,94 Z M147.411721,94 L147.411721,0.04 L169.567721,0.04 C177.223759,0.04 183.197699,1.0839896 187.489721,3.172 C191.781742,5.2600104 194.836378,8.4693117 196.653721,12.8 C198.471063,17.1306883 199.379721,22.6213001 199.379721,29.272 L199.379721,63.608 C199.379721,70.413367 198.471063,76.077977 196.653721,80.602 C194.836378,85.126023 191.820408,88.489989 187.605721,90.694 C183.391033,92.898011 177.610424,94 170.263721,94 L147.411721,94 Z M164.579721,82.052 L169.799721,82.052 C173.74374,82.052 176.566379,81.356007 178.267721,79.964 C179.969063,78.571993 181.013052,76.542013 181.399721,73.874 C181.786389,71.205987 181.979721,67.938686 181.979721,64.072 L181.979721,28.112 C181.979721,24.3226477 181.709057,21.2680116 181.167721,18.948 C180.626385,16.6279884 179.505063,14.9266721 177.803721,13.844 C176.102379,12.7613279 173.357073,12.22 169.567721,12.22 L164.579721,12.22 L164.579721,82.052 Z" id="RWD"></path>
        </g>
    </g>
</svg>